<svg xmlns="http://www.w3.org/2000/svg" xmlns:xlink="http://www.w3.org/1999/xlink" viewBox="0 0 128 128" preserveAspectRatio="xMidYMid" width="128" height="128" style="shape-rendering: auto; background: rgb(255, 255, 255);"><g transform="scale(0.5)"><defs><g id="stripe-0.6590519274487807"><path d="M 128 -128 L 179.2 -128 L -128 179.2 L -128 128 Z" fill="#74007a"/><path d="M 384 -128 L 384 -76.8 L -76.8 384 L -128 384 Z" fill="#74007a"/><path d="M 179.2 -128 L 230.4 -128 L -128 230.4 L -128 179.2 Z" fill="#a53faa"/><path d="M 384 -76.8 L 384 -25.599999999999994 L -25.599999999999994 384 L -76.8 384 Z" fill="#a53faa"/><path d="M 230.4 -128 L 281.6 -128 L -128 281.6 L -128 230.4 Z" fill="#da70dc"/><path d="M 384 -25.599999999999994 L 384 25.599999999999994 L 25.599999999999994 384 L -25.599999999999994 384 Z" fill="#da70dc"/><path d="M 281.6 -128 L 332.8 -128 L -128 332.8 L -128 281.6 Z" fill="#fab0fa"/><path d="M 384 25.599999999999994 L 384 76.80000000000001 L 76.80000000000001 384 L 25.599999999999994 384 Z" fill="#fab0fa"/><path d="M 332.8 -128 L 384 -128 L -128 384 L -128 332.8 Z" fill="#ffe9ff"/><path d="M 384 76.80000000000001 L 384 128 L 128 384 L 76.80000000000001 384 Z" fill="#ffe9ff"/></g></defs>
<g>
  <use xlink:href="#stripe-0.6590519274487807" x="-256" y="0"/>
  <use xlink:href="#stripe-0.6590519274487807" x="0" y="0"/>
  <animateTransform attributeName="transform" type="translate" keyTimes="0;1" repeatCount="indefinite" dur="1s" values="0 0; 256 0"/>
</g></g></svg>